<svg width="66" height="66" viewBox="0 0 66 66" fill="none" xmlns="http://www.w3.org/2000/svg">
<path d="M6 0C2.685 0 0 2.685 0 6V60C0 63.315 2.685 66 6 66H60C63.315 66 66 63.315 66 60V6C66 2.685 63.315 0 60 0H6ZM6 6H60V24H50.2207C46.4253 18.5638 40.133 15 33 15C25.867 15 19.5747 18.5638 15.7793 24H6V6ZM51 12V18H57V12H51ZM33 21C41.271 21 48 27.729 48 36C48 44.271 41.271 51 33 51C24.729 51 18 44.271 18 36C18 27.729 24.729 21 33 21ZM33 27C31.611 27 30.3147 27.3413 29.1387 27.9023C29.6697 28.4423 30 29.181 30 30C30 31.656 28.656 33 27 33C26.181 33 25.4423 32.6697 24.9023 32.1387C24.3413 33.3147 24 34.611 24 36C24 40.971 28.029 45 33 45C37.971 45 42 40.971 42 36C42 31.029 37.971 27 33 27Z" fill="#4D4D4D"/>
</svg>
