<?xml version="1.0" encoding="utf-8"?>
<svg width="72" height="67" viewBox="0 0 72 67" fill="none" xmlns="http://www.w3.org/2000/svg">
  <path d="M66.4629 0.00567516C65.4877 0.0486982 64.5791 0.332744 63.7793 0.656066C63.03 0.957457 60.1673 2.18528 55.6582 4.11896C51.1452 6.05431 45.1694 8.61989 38.7949 11.3611C26.0459 16.8437 11.7126 23.0151 4.37109 26.1736C4.09503 26.2924 3.13176 26.6001 2.10938 27.3983C1.08699 28.1964 0 29.8503 0 31.6932C0 33.1792 0.708203 34.6555 1.59961 35.5369C2.49102 36.4183 3.43424 36.8538 4.24219 37.1834C7.17369 38.3796 16.2655 42.1001 17.9824 42.8026C18.5866 44.6535 21.8775 54.7201 22.6406 57.1873C23.1437 58.8154 23.6226 59.8351 24.2461 60.6443C24.5578 61.049 24.9202 61.4036 25.3594 61.6815C25.5349 61.7925 25.7274 61.8781 25.9219 61.9568L25.9336 61.9627C25.9784 61.9807 26.017 62.0113 26.0625 62.0272C26.1482 62.0572 26.2056 62.0608 26.3203 62.0858C26.7773 62.2333 27.2386 62.326 27.6504 62.326C29.4059 62.326 30.4805 61.3592 30.4805 61.3592L30.5449 61.3123L39.5742 53.5018L50.5254 63.8611C50.6796 64.0792 52.1176 66.0526 55.2891 66.0526C57.1722 66.0526 58.666 65.1076 59.625 64.1014C60.584 63.0951 61.1815 62.038 61.4355 60.7088V60.7029C61.6731 59.4469 71.7656 7.63458 71.7656 7.63458L71.748 7.70489C72.0435 6.35635 72.1209 5.10047 71.7949 3.86114C71.4689 2.62182 70.6099 1.43522 69.5449 0.796691C68.48 0.158302 67.4381 -0.0373481 66.4629 0.00567516ZM65.9004 6.27521C65.886 6.36276 65.9112 6.31873 65.8887 6.42169L65.8828 6.45685L65.877 6.492C65.877 6.492 55.9095 57.6417 55.541 59.5897C55.568 59.4425 55.4447 59.7351 55.3184 59.9119C55.1397 59.7888 54.7734 59.6307 54.7734 59.6307L54.7148 59.5662L39.7559 45.4158L29.1797 54.5565L32.3262 41.9588C32.3262 41.9588 51.9947 21.5989 53.1797 20.4139C54.1337 19.4659 54.334 19.1354 54.334 18.8084C54.334 18.3704 54.1057 18.0525 53.5957 18.0525C53.1367 18.0525 52.5195 18.4988 52.1895 18.7088C47.8901 21.4494 29.0155 32.45 20.5547 37.3709C19.2101 36.8207 9.86899 32.997 6.70312 31.7049C6.7271 31.6944 6.7192 31.6981 6.74414 31.6873C14.0876 28.5279 28.4149 22.3566 41.1621 16.8748C47.5357 14.1339 53.516 11.5664 58.0254 9.63263C62.4653 7.7286 65.5504 6.41822 65.9004 6.27521Z" style="paint-order: fill; fill: rgb(80, 184, 97);"/>
</svg>