<?xml version="1.0" encoding="utf-8"?>
<svg width="66" height="66" viewBox="0 0 66 66" fill="none" xmlns="http://www.w3.org/2000/svg">
  <path d="M60 0H6C2.685 0 0 2.685 0 6V60C0 63.315 2.685 66 6 66H60C63.315 66 66 63.315 66 60V6C66 2.685 63.312 0 60 0ZM56.067 28.422C55.677 28.458 55.284 28.482 54.888 28.482C50.403 28.482 46.461 26.178 44.166 22.689C44.166 31.836 44.166 42.246 44.166 42.42C44.166 50.475 37.635 57.003 29.583 57.003C21.531 57 15 50.469 15 42.417C15 34.362 21.531 27.834 29.583 27.834C29.889 27.834 30.186 27.861 30.483 27.879V35.067C30.183 35.031 29.892 34.977 29.583 34.977C25.473 34.977 22.14 38.31 22.14 42.42C22.14 46.53 25.47 49.863 29.583 49.863C33.696 49.863 37.326 46.623 37.326 42.513C37.326 42.348 37.398 9.003 37.398 9.003H44.265C44.91 15.144 49.869 19.992 56.067 20.436V28.422Z" style="fill: rgb(245, 136, 45);"/>
</svg>